<svg width="38" height="39" viewBox="0 0 38 39" fill="none" xmlns="http://www.w3.org/2000/svg">
<path d="M21.9244 11.807L29.6224 3.94859C29.901 3.664 30.2318 3.43824 30.5959 3.28422C30.96 3.13019 31.3503 3.05091 31.7444 3.05091C32.1385 3.05091 32.5288 3.13019 32.8929 3.28422C33.257 3.43824 33.5878 3.664 33.8664 3.94859L34.1204 4.20788C34.3992 4.49229 34.6203 4.82998 34.7712 5.20167C34.9221 5.57336 34.9998 5.97175 34.9998 6.37409C34.9998 6.77643 34.9221 7.17482 34.7712 7.54651C34.6203 7.9182 34.3992 8.25589 34.1204 8.5403L26.4424 16.3762C26.0354 15.3397 25.4244 14.3995 24.6473 13.6136C23.8702 12.8277 22.9435 12.2128 21.9244 11.807ZM21.9244 11.807C22.945 12.2119 23.8732 12.8263 24.6518 13.6123C25.4303 14.3982 26.0425 15.339 26.4504 16.3762L33.7744 8.89963C35.8797 11.9733 37.0088 15.6331 37.0088 19.3836C37.0088 23.1341 35.8797 26.7939 33.7744 29.8675L26.4224 22.3624M21.9244 11.807L29.2784 4.3018C26.2675 2.15263 22.6823 1 19.0084 1C15.3345 1 11.7493 2.15263 8.73841 4.3018L16.0624 11.7784C15.0473 12.1937 14.1263 12.8171 13.3565 13.61C12.5866 14.4029 11.9842 15.3485 11.5864 16.3885L4.23441 8.89146C2.12911 11.9651 1 15.625 1 19.3754C1 23.1259 2.12911 26.7858 4.23441 29.8594L11.5584 22.3828C11.9652 23.4191 12.5759 24.3592 13.3526 25.1451C14.1294 25.931 15.0557 26.546 16.0744 26.952L8.73041 34.4572C11.7413 36.6064 15.3265 37.759 19.0004 37.759C22.6743 37.759 26.2595 36.6064 29.2704 34.4572L21.9464 26.9806C22.9623 26.5644 23.8837 25.9398 24.6536 25.1454C25.4235 24.351 26.0255 23.4038 26.4224 22.3624M26.4224 22.3624L34.1204 30.2187C34.3992 30.5031 34.6203 30.8408 34.7712 31.2125C34.9221 31.5842 34.9998 31.9826 34.9998 32.3849C34.9998 32.7873 34.9221 33.1857 34.7712 33.5573C34.6203 33.929 34.3992 34.2667 34.1204 34.5511L33.8664 34.8084C33.5878 35.093 33.257 35.3187 32.8929 35.4728C32.5288 35.6268 32.1385 35.7061 31.7444 35.7061C31.3503 35.7061 30.96 35.6268 30.5959 35.4728C30.2318 35.3187 29.901 35.093 29.6224 34.8084L21.9464 26.9725C22.9615 26.5572 23.8825 25.9338 24.6523 25.1409C25.4222 24.3479 26.0246 23.4023 26.4224 22.3624ZM27.0044 19.3795C27.0044 23.8898 23.4227 27.5462 19.0044 27.5462C14.5861 27.5462 11.0044 23.8898 11.0044 19.3795C11.0044 14.8692 14.5861 11.2128 19.0044 11.2128C23.4227 11.2128 27.0044 14.8692 27.0044 19.3795ZM11.5664 22.3828L3.88841 30.2187C3.60963 30.5031 3.38848 30.8408 3.2376 31.2125C3.08672 31.5842 3.00905 31.9826 3.00905 32.3849C3.00905 32.7873 3.08672 33.1857 3.2376 33.5573C3.38848 33.929 3.60963 34.2667 3.88841 34.5511L4.14241 34.8084C4.42101 35.093 4.75182 35.3187 5.11592 35.4728C5.48002 35.6268 5.87029 35.7061 6.26441 35.7061C6.65854 35.7061 7.04881 35.6268 7.41291 35.4728C7.77701 35.3187 8.10781 35.093 8.38641 34.8084L16.0824 26.952C15.0637 26.546 14.1374 25.931 13.3606 25.1451C12.5839 24.3592 11.9732 23.4191 11.5664 22.3828ZM16.0624 11.7865L8.38641 3.94859C8.10781 3.664 7.77701 3.43824 7.41291 3.28422C7.04881 3.13019 6.65854 3.05091 6.26441 3.05091C5.87029 3.05091 5.48002 3.13019 5.11592 3.28422C4.75182 3.43824 4.42101 3.664 4.14241 3.94859L3.88841 4.20788C3.60963 4.49229 3.38848 4.82998 3.2376 5.20167C3.08672 5.57336 3.00905 5.97175 3.00905 6.37409C3.00905 6.77643 3.08672 7.17482 3.2376 7.54651C3.38848 7.9182 3.60963 8.25589 3.88841 8.5403L11.5864 16.3966C11.9842 15.3567 12.5866 14.4111 13.3565 13.6181C14.1263 12.8252 15.0473 12.2019 16.0624 11.7865Z" stroke="#F6F6F6" stroke-width="2" stroke-linecap="round" stroke-linejoin="round"/>
</svg>
