<svg width="35" height="35" viewBox="0 0 35 35" fill="none" xmlns="http://www.w3.org/2000/svg">
<path d="M7.29167 4.375C5.68084 4.375 4.375 5.68084 4.375 7.29167V10.2083C4.375 11.8192 5.68084 13.125 7.29167 13.125H13.125C14.7358 13.125 16.0417 11.8192 16.0417 10.2083V7.29167C16.0417 5.68084 14.7358 4.375 13.125 4.375H7.29167Z" fill="#E5E8F0"/>
<path d="M27.7083 30.625C29.3192 30.625 30.625 29.3192 30.625 27.7083V24.7917C30.625 23.1808 29.3192 21.875 27.7083 21.875H21.875C20.2642 21.875 18.9583 23.1808 18.9583 24.7917V27.7083C18.9583 29.3192 20.2642 30.625 21.875 30.625H27.7083Z" fill="#E5E8F0"/>
<path d="M7.29167 16.0417C5.68084 16.0417 4.375 17.3475 4.375 18.9583V27.7083C4.375 29.3192 5.68084 30.625 7.29167 30.625H13.125C14.7358 30.625 16.0417 29.3192 16.0417 27.7083V18.9583C16.0417 17.3475 14.7358 16.0417 13.125 16.0417H7.29167Z" fill="#E5E8F0"/>
<path d="M27.7083 18.9583C29.3192 18.9583 30.625 17.6525 30.625 16.0417V7.29167C30.625 5.68084 29.3192 4.375 27.7083 4.375H21.875C20.2642 4.375 18.9583 5.68084 18.9583 7.29167V16.0417C18.9583 17.6525 20.2642 18.9583 21.875 18.9583L27.7083 18.9583Z" fill="#E5E8F0"/>
</svg>
