<svg width="38" height="38" viewBox="0 0 38 38" fill="none" xmlns="http://www.w3.org/2000/svg">
  <path d="M15.8333 3.16675C8.83769 3.16675 3.16663 8.83781 3.16663 15.8334C3.16663 22.829 8.83769 28.5001 15.8333 28.5001C22.8289 28.5001 28.5 22.829 28.5 15.8334C28.5 8.83781 22.8289 3.16675 15.8333 3.16675Z" fill="#E4E8F0"/>
  <path d="M16 7C11.0294 7 7 11.0294 7 16C7 20.9706 11.0294 25 16 25C20.9706 25 25 20.9706 25 16C25 11.0294 20.9706 7 16 7Z" fill="#111928"/>
  <path fill-rule="evenodd" clip-rule="evenodd" d="M32.2575 32.2576C31.519 32.9961 30.3218 32.9961 29.5833 32.2576L22.965 25.6393C22.2266 24.9009 22.2266 23.7036 22.965 22.9652C23.7035 22.2267 24.9008 22.2267 25.6392 22.9652L32.2575 29.5834C32.996 30.3219 32.996 31.5192 32.2575 32.2576Z" fill="#E4E8F0"/>
</svg>
