<svg width="48" height="48" viewBox="0 0 48 48" fill="none" xmlns="http://www.w3.org/2000/svg">
    <path fill-rule="evenodd" clip-rule="evenodd" d="M24 6C24.6076 6 25.1822 6.27618 25.5617 6.75061L33.5617 16.7506C34.2518 17.6131 34.1119 18.8717 33.2494 19.5617C32.3869 20.2518 31.1283 20.1119 30.4383 19.2494L26 13.7016L26 28C26 29.1046 25.1046 30 24 30C22.8954 30 22 29.1046 22 28L22 13.7016L17.5617 19.2494C16.8717 20.1119 15.6131 20.2518 14.7506 19.5617C13.8881 18.8717 13.7482 17.6131 14.4383 16.7506L22.4383 6.75061C22.8178 6.27618 23.3924 6 24 6ZM18 28L18 26H10C7.79086 26 6 27.7909 6 30V38C6 40.2091 7.79086 42 10 42H38C40.2091 42 42 40.2091 42 38V30C42 27.7909 40.2091 26 38 26H30V28C30 31.3137 27.3137 34 24 34C20.6863 34 18 31.3137 18 28ZM34 32C32.8954 32 32 32.8954 32 34C32 35.1046 32.8954 36 34 36H34.02C35.1246 36 36.02 35.1046 36.02 34C36.02 32.8954 35.1246 32 34.02 32H34Z" fill="#91969F"/>
</svg>
