<svg width="24" height="24" viewBox="0 0 24 24" fill="none" xmlns="http://www.w3.org/2000/svg">
<path d="M4.05005 16.8705C4.05006 14.8884 6.71865 12.0808 9.89588 12.5087C12.1016 12.8057 11.7485 15.2398 13.9542 15.5368C17.1315 15.9646 19.8 11.175 19.8 11.175M9.89587 6.04687C6.71864 5.61902 4.05005 8.42654 4.05005 10.4087L4.05005 19.0897C4.05005 19.1516 4.11735 19.2 4.20036 19.2L19.6497 19.2C19.7327 19.2 19.8 19.1498 19.8 19.0878V5.27511C19.8 5.15246 19.5596 5.11157 19.488 5.22195C18.6952 6.44337 16.4862 9.41594 13.9542 9.07498C11.7485 8.77795 12.1016 6.3439 9.89587 6.04687Z" stroke="#BFBFBF" stroke-width="1.5" stroke-linecap="round"/>
<path d="M4.20036 19.2L19.6497 19.2C19.7327 19.2 19.8 19.1498 19.8 19.0878L19.8 11.7524C19.8 11.5977 19.5839 11.5355 19.4999 11.6654C18.7176 12.875 16.499 15.8795 13.9542 15.5368C11.7485 15.2398 12.1016 12.8057 9.89588 12.5087C6.71865 12.0809 4.05005 14.8884 4.05005 16.8705L4.05005 19.0897C4.05005 19.1516 4.11735 19.2 4.20036 19.2Z" stroke="#C650DA" stroke-width="1.5" stroke-linecap="round"/>
</svg>
