<svg width="24" height="24" viewBox="0 0 24 24" fill="none" xmlns="http://www.w3.org/2000/svg">
<path d="M2.25 12.0001C2.25 16.138 5.41145 19.5376 9.45073 19.9152C9.86315 19.9538 10.2 19.6143 10.2 19.2001V17.3977C10.2 16.9835 9.86189 16.6541 9.45297 16.588C7.24128 16.2307 5.55231 14.3126 5.55231 12.0001C5.55231 9.6875 7.24128 7.76942 9.45297 7.41208C9.86189 7.34601 10.2 7.01657 10.2 6.60236V4.80005C10.2 4.38584 9.86315 4.04634 9.45073 4.08489C5.41145 4.46248 2.25 7.86207 2.25 12.0001Z" stroke="#BFBFBF" stroke-width="1.5"/>
<path d="M13.349 2.8848C12.9366 2.84626 12.6 3.18576 12.6 3.59998V5.40228C12.6 5.8165 12.938 6.14592 13.3469 6.21198C14.3234 6.36973 15.1981 6.83176 15.8704 7.49767C16.5535 8.17415 17.0277 9.06104 17.188 10.0531C17.254 10.462 17.5835 10.8 17.9977 10.8H19.8C20.2142 10.8 20.5537 10.4633 20.5152 10.0509C20.3325 8.09669 19.4425 6.34793 18.1038 5.06322C16.8443 3.85453 15.1876 3.05661 13.349 2.8848Z" stroke="#C650DA" stroke-width="1.5"/>
<path d="M12.6 20.4C12.6 20.8142 12.9368 21.1537 13.3492 21.1151C17.1419 20.7606 20.1606 17.7419 20.5151 13.9492C20.5537 13.5368 20.2142 13.2 19.8 13.2H17.9977C17.5835 13.2 17.254 13.5381 17.188 13.947C16.8699 15.9155 15.3155 17.4699 13.347 17.7879C12.9381 17.854 12.6 18.1834 12.6 18.5976V20.4Z" stroke="#BFBFBF" stroke-width="1.5"/>
</svg>
